HIERARCHY
ROOT hip
{
	OFFSET 0.000000 0.000000 0.000000 
	CHANNELS 6 Xposition Yposition Zposition Zrotation Xrotation Yrotation
	JOINT abdomen
	{
		OFFSET 0.000000 3.402643 0.000000 
		CHANNELS 3 Zrotation Xrotation Yrotation
		JOINT chest
		{
			OFFSET 0.000000 8.438565 -0.680529 
			CHANNELS 3 Zrotation Xrotation Yrotation
			JOINT neck
			{
				OFFSET 0.000000 10.207942 -0.272212 
				CHANNELS 3 Zrotation Xrotation Yrotation
				JOINT head
				{
					OFFSET 0.000000 3.130431 0.000000 
					CHANNELS 3 Zrotation Xrotation Yrotation
					End Site
					{
						OFFSET 0.000000 3.130435 0.000000 
					}
				}
			}
			JOINT lCollar
			{
				OFFSET 3.470700 6.669187 -0.816635 
				CHANNELS 3 Zrotation Xrotation Yrotation
				JOINT lShldr
				{
					OFFSET 3.198488 0.000000 0.000000 
					CHANNELS 3 Zrotation Xrotation Yrotation
					JOINT lForeArm
					{
						OFFSET 10.139888 0.000000 0.000000 
						CHANNELS 3 Zrotation Xrotation Yrotation
						JOINT lHand
						{
							OFFSET 8.370511 0.000000 0.000000 
							CHANNELS 3 Zrotation Xrotation Yrotation
							End Site
							{
								OFFSET 4.083176 0.000000 0.000000 
							}
						}
					}
				}
			}
			JOINT rCollar
			{
				OFFSET -3.470700 6.669187 -0.816635 
				CHANNELS 3 Zrotation Xrotation Yrotation
				JOINT rShldr
				{
					OFFSET -3.198488 0.000000 0.000000 
					CHANNELS 3 Zrotation Xrotation Yrotation
					JOINT rForeArm
					{
						OFFSET -10.139888 0.000000 0.000000 
						CHANNELS 3 Zrotation Xrotation Yrotation
						JOINT rHand
						{
							OFFSET -8.370511 0.000000 0.000000 
							CHANNELS 3 Zrotation Xrotation Yrotation
							End Site
							{
								OFFSET -4.083176 0.000000 0.000000 
							}
						}
					}
				}
			}
		}
	}
	JOINT lThigh
	{
		OFFSET 5.308129 -1.633274 1.361059 
		CHANNELS 3 Zrotation Xrotation Yrotation
		JOINT lShin
		{
			OFFSET -2.041588 -20.007561 0.000000 
			CHANNELS 3 Zrotation Xrotation Yrotation
			JOINT lFoot
			{
				OFFSET 0.000000 -19.190928 -1.224953 
				CHANNELS 3 Zrotation Xrotation Yrotation
				End Site
				{
					OFFSET 0.000000 -2.449906 4.627600 
				}
			}
		}
	}
	JOINT rThigh
	{
		OFFSET -5.308129 -1.633274 1.361059 
		CHANNELS 3 Zrotation Xrotation Yrotation
		JOINT rShin
		{
			OFFSET 2.041588 -20.007561 0.000000 
			CHANNELS 3 Zrotation Xrotation Yrotation
			JOINT rFoot
			{
				OFFSET 0.000000 -19.190928 -1.224953 
				CHANNELS 3 Zrotation Xrotation Yrotation
				End Site
				{
					OFFSET 0.000000 -2.449906 4.627600 
				}
			}
		}
	}
}
MOTION
Frames: 11
Frame Time: 0.033333
0.009944 48.147449 4.185030 -0.000000 0.000000 -0.000000 -0.000000 -0.000002 -0.000000 -0.000000 -1.005862 -0.000000 -0.000000 3.994135 -0.000000 0.000000 -3.339844 -10.322265 -5.687435 -0.268816 2.011532 -63.698036 19.923485 36.823578 -11.588984 11.027713 -54.254242 -18.779182 1.200215 -17.645779 5.677635 -0.269442 -2.021281 69.824898 18.619091 -37.915649 12.935690 8.931201 44.298439 -3.185045 -1.596773 25.319538 1.920613 -1.704434 0.261289 -1.782045 12.514965 -0.513677 -0.709625 -11.132539 0.055812 -4.301963 -1.692086 -0.454909 1.449200 12.355282 0.142409 1.780432 -11.472516 -1.721611 
0.004529 48.157555 4.673410 -0.000000 0.000000 -0.000000 -0.000000 -0.000002 -0.000000 -0.000000 -1.005862 -0.000000 -0.000000 3.994135 -0.000000 0.000000 -3.544921 -16.152344 -5.687435 -0.268816 2.011532 -63.829052 19.908428 36.851650 -10.289407 12.101338 -60.148441 -18.759274 1.355666 -17.979181 5.677635 -0.269442 -2.021281 70.021530 18.567511 -37.891521 12.550856 9.222161 45.617607 -3.127762 -1.322989 25.600231 1.883164 -0.770174 0.176059 -1.686209 11.857263 -0.529790 -0.639140 -11.465541 0.119301 -4.258876 -0.738661 -0.239513 1.385553 11.643471 -0.092521 1.867953 -11.611332 -1.591186 
-0.000765 48.167492 5.171294 -0.000000 0.000000 -0.000000 -0.000000 -0.000002 -0.000000 -0.000000 -1.005862 -0.000000 -0.000000 3.994135 -0.000000 0.000000 -3.769531 -21.503906 -5.687435 -0.268816 2.011532 -62.066479 20.057180 36.312916 -10.485141 13.880095 -66.623627 -18.885641 -0.672541 -13.564437 5.677635 -0.269442 -2.021281 67.372910 19.120981 -38.177658 13.967169 10.751560 50.899963 -3.890300 -4.858191 21.697479 1.852301 -0.018816 0.107794 -1.553650 11.379536 -0.621933 -0.746727 -11.915705 0.209020 -4.275600 -0.146078 -0.284189 1.393918 11.283289 0.043324 1.752367 -11.982840 -1.694407 
-0.005506 48.176521 5.656281 -0.000000 0.000000 -0.000000 -0.000000 -0.000002 -0.000000 -0.000000 -1.005862 -0.000000 -0.000000 3.994135 -0.000000 0.000000 -3.994140 -25.693357 -5.687435 -0.268816 2.011532 -61.001011 20.149063 35.994362 -10.822553 14.792848 -69.129066 -18.797918 -1.934983 -10.913980 5.677635 -0.269442 -2.021281 65.779388 19.459654 -38.345997 14.693200 11.896540 54.219139 -4.512314 -6.873545 19.247919 1.832906 0.195266 -0.089016 -1.542015 11.159714 -0.471727 -0.863985 -11.818567 0.238739 -4.338999 -0.233580 -0.307700 1.534549 11.469692 0.099780 1.628138 -12.041808 -1.893729 
-0.009221 48.183807 6.104770 -0.000000 0.000000 -0.000000 -0.000000 -0.000002 -0.000000 -0.000000 -1.005862 -0.000000 -0.000000 3.994135 -0.000000 0.000000 -4.218749 -27.871088 -5.687435 -0.268816 2.011532 -62.705505 20.001480 36.512344 -10.303564 13.312714 -64.889130 -18.877140 0.075907 -15.177783 5.677635 -0.269442 -2.021281 68.339401 18.928865 -38.072346 13.035141 10.724467 51.442280 -3.579407 -3.599720 23.135887 1.829326 0.593301 -0.222740 -1.641304 10.961829 -0.357801 -0.700094 -11.945095 0.265792 -4.186279 0.553791 -0.201863 1.224494 10.920035 0.043365 1.824195 -12.223252 -1.809705 
-0.011364 48.188408 6.490873 -0.000000 0.000000 -0.000000 -0.000000 -0.000002 -0.000000 -0.000000 -1.005862 -0.000000 -0.000000 3.994135 -0.000000 0.000001 -4.453125 -27.099609 -5.687435 -0.268816 2.011532 -63.815964 19.905443 36.829403 -10.046583 12.334453 -61.456020 -18.757437 1.346174 -17.930012 5.677635 -0.269442 -2.021281 69.985664 18.547600 -37.886333 11.634689 10.398538 51.192070 -3.077231 -1.359251 25.549828 1.794664 1.462791 -0.369888 -1.487759 10.196939 -0.297603 -0.876326 -12.180411 0.316068 -4.206118 1.312967 -0.248386 1.121574 10.329814 0.106412 1.995097 -12.306563 -1.676817 
-0.011494 48.189556 6.792441 -0.000000 0.000000 -0.000000 -0.000000 -0.000002 -0.000000 -0.000000 -1.005862 -0.000000 -0.000000 3.994135 -0.000000 0.000000 -4.697265 -22.705076 -5.687435 -0.268816 2.011532 -61.591434 20.091013 36.118267 -11.431377 13.760485 -64.860023 -18.817736 -1.244880 -12.263372 5.677635 -0.269442 -2.021281 66.612915 19.221088 -38.237083 12.746296 13.043827 59.984005 -4.045964 -5.811558 20.528973 1.736072 2.055518 -0.375355 -1.545718 9.636008 -0.258153 -0.728188 -12.208888 0.267554 -4.199427 1.956556 -0.237045 1.019711 9.661206 0.156458 2.150447 -12.390213 -1.684202 
-0.009789 48.187569 7.010691 -0.000000 0.000000 -0.000000 -0.000000 -0.000002 -0.000000 -0.000000 -1.005862 -0.000000 -0.000000 3.994135 -0.000000 0.000000 -4.931640 -15.585938 -5.687435 -0.268816 2.011532 -61.001011 20.149063 35.994362 -12.055834 13.814076 -64.134140 -18.797918 -1.934983 -10.913980 5.677635 -0.269442 -2.021281 65.779388 19.459654 -38.345997 13.046211 13.687608 61.646854 -4.512314 -6.873545 19.247919 1.768582 2.566337 -0.428666 -1.533603 9.244125 -0.200685 -0.815204 -12.199070 0.210299 -4.194944 2.313442 -0.227811 1.068292 9.539600 0.109026 2.033121 -12.627056 -1.752070 
-0.006567 48.183010 7.152305 -0.000000 0.000000 -0.000000 -0.000000 -0.000002 -0.000000 -0.000000 -1.005862 -0.000000 -0.000000 3.994135 -0.000000 0.000000 -5.166014 -7.001953 -5.687435 -0.268816 2.011532 -63.953854 19.930172 37.072044 -10.834458 11.304014 -55.737114 -18.826378 1.510393 -18.573158 5.677635 -0.269442 -2.021281 70.346153 18.724815 -37.932873 11.168286 10.521392 52.118320 -3.408873 -0.990073 26.077951 1.951107 2.805111 -0.550775 -1.533552 9.301782 -0.250918 -0.940829 -12.678906 0.450008 -4.187366 2.692702 -0.176430 1.246624 9.446532 0.166365 1.883887 -12.877965 -1.717549 
-0.002147 48.176449 7.223969 -0.000000 0.000000 -0.000000 -0.000000 -0.000002 -0.000000 -0.000000 -1.005862 -0.000000 -0.000000 3.994135 -0.000000 -0.000000 -5.390624 1.806641 -5.687435 -0.268816 2.011532 -61.092262 20.129555 36.203632 -12.398804 13.305013 -61.243259 -18.832199 -1.777878 -11.419819 5.677635 -0.269442 -2.021281 66.112885 19.635742 -38.395485 12.428348 13.877375 63.066490 -4.735088 -6.558417 19.755119 1.931723 2.922146 -0.591466 -1.771286 9.301476 -0.178504 -0.729886 -12.618283 0.473125 -4.212515 2.725465 -0.193279 1.247528 9.528643 0.070874 1.999951 -12.894897 -1.662277 
0.003151 48.168423 7.232370 -0.000000 0.000000 -0.000000 -0.000000 -0.000002 -0.000000 -0.000000 -1.005862 -0.000000 -0.000000 3.994135 -0.000000 -0.000000 -5.615234 9.580077 -5.687435 -0.268816 2.011532 -63.933861 19.932116 37.029675 -11.352046 10.867720 -53.447002 -18.790321 1.450352 -18.439503 5.677635 -0.269442 -2.021281 70.275406 18.686308 -37.922703 11.671639 10.030974 49.596180 -3.366465 -1.080962 25.980251 1.902288 2.931221 -0.534307 -1.562190 9.246574 -0.276153 -0.758164 -12.706771 0.433172 -4.237218 2.849362 -0.151345 1.234867 9.273643 0.084699 1.992583 -12.804466 -1.702795 
